  0
SECTION
  2
HEADER
  9
$ACADVER
  1
AC1009
  9
$ANGDIR
  70
0
  9
$CECOLOR
  62
256
  9
$CELTYPE
  6
BYLAYER
  9
$EXTMIN
  10
0.0
  20
0.0
  9
$EXTMAX
  10
27.0
  20
6.603
  9
$FILLMODE
  70
1
  9
$MIRRTEXT
  70
0
  0
ENDSEC
  0
SECTION
  2
TABLES
  0
TABLE
  2
LAYER
  70
23
  0
LAYER
  2
Board_Outline
  70
64
  62
21
  6
CONTINUOUS
  0
ENDTAB
  0
ENDSEC
  0
SECTION
  2
ENTITIES
  0
POLYLINE
  8
Board_Outline
  6
CONTINUOUS
  66
1
  70
0
  40
0.1524
  41
0.1524
  0
VERTEX
  8
Board_Outline
  10
6.9994
  20
-7.9236
  42
0
  0
VERTEX
  8
Board_Outline
  10
6.8689
  20
-7.915
  42
0
  0
VERTEX
  8
Board_Outline
  10
6.7406
  20
-7.8895
  42
0
  0
VERTEX
  8
Board_Outline
  10
6.6167
  20
-7.8475
  42
0
  0
VERTEX
  8
Board_Outline
  10
6.4994
  20
-7.7896
  42
0
  0
VERTEX
  8
Board_Outline
  10
6.3906
  20
-7.717
  42
0
  0
VERTEX
  8
Board_Outline
  10
6.2923
  20
-7.6307
  42
0
  0
VERTEX
  8
Board_Outline
  10
6.206
  20
-7.5324
  42
0
  0
VERTEX
  8
Board_Outline
  10
6.1334
  20
-7.4236
  42
0
  0
VERTEX
  8
Board_Outline
  10
6.0755
  20
-7.3063
  42
0
  0
VERTEX
  8
Board_Outline
  10
6.0335
  20
-7.1824
  42
0
  0
VERTEX
  8
Board_Outline
  10
6.008
  20
-7.0541
  42
0
  0
VERTEX
  8
Board_Outline
  10
5.9994
  20
-6.9236
  42
0
  0
VERTEX
  8
Board_Outline
  10
6.008
  20
-6.7931
  42
0
  0
VERTEX
  8
Board_Outline
  10
6.0335
  20
-6.6648
  42
0
  0
VERTEX
  8
Board_Outline
  10
6.0755
  20
-6.5409
  42
0
  0
VERTEX
  8
Board_Outline
  10
6.1334
  20
-6.4236
  42
0
  0
VERTEX
  8
Board_Outline
  10
6.206
  20
-6.3148
  42
0
  0
VERTEX
  8
Board_Outline
  10
6.2923
  20
-6.2165
  42
0
  0
VERTEX
  8
Board_Outline
  10
6.3906
  20
-6.1302
  42
0
  0
VERTEX
  8
Board_Outline
  10
6.4994
  20
-6.0576
  42
0
  0
VERTEX
  8
Board_Outline
  10
6.6167
  20
-5.9997
  42
0
  0
VERTEX
  8
Board_Outline
  10
6.7406
  20
-5.9577
  42
0
  0
VERTEX
  8
Board_Outline
  10
6.8689
  20
-5.9322
  42
0
  0
VERTEX
  8
Board_Outline
  10
6.9994
  20
-5.9236
  42
0
  0
VERTEX
  8
Board_Outline
  10
19.9994
  20
-5.9236
  42
0
  0
VERTEX
  8
Board_Outline
  10
20.1299
  20
-5.9322
  42
0
  0
VERTEX
  8
Board_Outline
  10
20.2582
  20
-5.9577
  42
0
  0
VERTEX
  8
Board_Outline
  10
20.3821
  20
-5.9997
  42
0
  0
VERTEX
  8
Board_Outline
  10
20.4994
  20
-6.0576
  42
0
  0
VERTEX
  8
Board_Outline
  10
20.6082
  20
-6.1302
  42
0
  0
VERTEX
  8
Board_Outline
  10
20.7065
  20
-6.2165
  42
0
  0
VERTEX
  8
Board_Outline
  10
20.7928
  20
-6.3148
  42
0
  0
VERTEX
  8
Board_Outline
  10
20.8654
  20
-6.4236
  42
0
  0
VERTEX
  8
Board_Outline
  10
20.9233
  20
-6.5409
  42
0
  0
VERTEX
  8
Board_Outline
  10
20.9653
  20
-6.6648
  42
0
  0
VERTEX
  8
Board_Outline
  10
20.9908
  20
-6.7931
  42
0
  0
VERTEX
  8
Board_Outline
  10
20.9994
  20
-6.9236
  42
0
  0
VERTEX
  8
Board_Outline
  10
20.9908
  20
-7.0541
  42
0
  0
VERTEX
  8
Board_Outline
  10
20.9653
  20
-7.1824
  42
0
  0
VERTEX
  8
Board_Outline
  10
20.9233
  20
-7.3063
  42
0
  0
VERTEX
  8
Board_Outline
  10
20.8654
  20
-7.4236
  42
0
  0
VERTEX
  8
Board_Outline
  10
20.7928
  20
-7.5324
  42
0
  0
VERTEX
  8
Board_Outline
  10
20.7065
  20
-7.6307
  42
0
  0
VERTEX
  8
Board_Outline
  10
20.6082
  20
-7.717
  42
0
  0
VERTEX
  8
Board_Outline
  10
20.4994
  20
-7.7896
  42
0
  0
VERTEX
  8
Board_Outline
  10
20.3821
  20
-7.8475
  42
0
  0
VERTEX
  8
Board_Outline
  10
20.2582
  20
-7.8895
  42
0
  0
VERTEX
  8
Board_Outline
  10
20.1299
  20
-7.915
  42
0
  0
VERTEX
  8
Board_Outline
  10
19.9994
  20
-7.9236
  42
0
  0
VERTEX
  8
Board_Outline
  10
6.9994
  20
-7.9236
  42
0
  0
SEQEND
  0
POLYLINE
  8
Board_Outline
  6
CONTINUOUS
  66
1
  70
0
  40
0.1524
  41
0.1524
  0
VERTEX
  8
Board_Outline
  10
24.5
  20
5.0
  42
0
  0
VERTEX
  8
Board_Outline
  10
25.4567
  20
4.8097
  42
0
  0
VERTEX
  8
Board_Outline
  10
26.2678
  20
4.2678
  42
0
  0
VERTEX
  8
Board_Outline
  10
26.8097
  20
3.4567
  42
0
  0
VERTEX
  8
Board_Outline
  10
27.0
  20
2.5
  42
0
  0
VERTEX
  8
Board_Outline
  10
26.8097
  20
1.5433
  42
0
  0
VERTEX
  8
Board_Outline
  10
26.2678
  20
0.7322
  42
0
  0
VERTEX
  8
Board_Outline
  10
25.4567
  20
0.1903
  42
0
  0
VERTEX
  8
Board_Outline
  10
24.5
  20
0.0
  42
0
  0
VERTEX
  8
Board_Outline
  10
2.5
  20
0.0
  42
0
  0
VERTEX
  8
Board_Outline
  10
1.6449
  20
0.1508
  42
0
  0
VERTEX
  8
Board_Outline
  10
0.893
  20
0.5849
  42
0
  0
VERTEX
  8
Board_Outline
  10
0.3349
  20
1.25
  42
0
  0
VERTEX
  8
Board_Outline
  10
0.038
  20
2.0659
  42
0
  0
VERTEX
  8
Board_Outline
  10
0.038
  20
2.9341
  42
0
  0
VERTEX
  8
Board_Outline
  10
0.3349
  20
3.75
  42
0
  0
VERTEX
  8
Board_Outline
  10
0.8931
  20
4.4151
  42
0
  0
VERTEX
  8
Board_Outline
  10
1.645
  20
4.8492
  42
0
  0
VERTEX
  8
Board_Outline
  10
2.5
  20
5.0
  42
0
  0
VERTEX
  8
Board_Outline
  10
9.4996
  20
5.0
  42
0
  0
VERTEX
  8
Board_Outline
  10
10.9996
  20
5.0
  42
0
  0
VERTEX
  8
Board_Outline
  10
11.4985
  20
5.7399
  42
0
  0
VERTEX
  8
Board_Outline
  10
12.208
  20
6.2811
  42
0
  0
VERTEX
  8
Board_Outline
  10
13.0534
  20
6.5667
  42
0
  0
VERTEX
  8
Board_Outline
  10
13.9458
  20
6.5667
  42
0
  0
VERTEX
  8
Board_Outline
  10
14.7912
  20
6.2811
  42
0
  0
VERTEX
  8
Board_Outline
  10
15.5007
  20
5.7398
  42
0
  0
VERTEX
  8
Board_Outline
  10
15.9996
  20
5.0
  42
0
  0
VERTEX
  8
Board_Outline
  10
17.4996
  20
5.0
  42
0
  0
VERTEX
  8
Board_Outline
  10
24.5
  20
5.0
  42
0
  0
SEQEND
  0
ENDSEC
  0
EOF
